<svg width="118" height="44" viewBox="0 0 118 44" fill="none" xmlns="http://www.w3.org/2000/svg">
<path d="M57.6875 35V8.81818H68.9886C70.9318 8.81818 72.6321 9.17187 74.0895 9.87926C75.5469 10.5866 76.6804 11.6051 77.4901 12.9347C78.2997 14.2642 78.7045 15.858 78.7045 17.7159C78.7045 19.5909 78.2869 21.1719 77.4517 22.4588C76.625 23.7457 75.4616 24.7173 73.9616 25.3736C72.4702 26.0298 70.7273 26.358 68.733 26.358H61.983V20.8352H67.3011C68.1364 20.8352 68.848 20.733 69.4361 20.5284C70.0327 20.3153 70.4886 19.9787 70.804 19.5185C71.1278 19.0582 71.2898 18.4574 71.2898 17.7159C71.2898 16.9659 71.1278 16.3565 70.804 15.8878C70.4886 15.4105 70.0327 15.0611 69.4361 14.8395C68.848 14.6094 68.1364 14.4943 67.3011 14.4943H64.7955V35H57.6875ZM73.0284 22.983L79.5739 35H71.8523L65.4602 22.983H73.0284ZM85.6719 35.4091C84.6832 35.4091 83.8352 35.0639 83.1278 34.3736C82.429 33.6747 82.0838 32.8267 82.0923 31.8295C82.0838 30.858 82.429 30.027 83.1278 29.3366C83.8352 28.6463 84.6832 28.3011 85.6719 28.3011C86.6094 28.3011 87.4361 28.6463 88.152 29.3366C88.8764 30.027 89.2429 30.858 89.2514 31.8295C89.2429 32.4943 89.0682 33.0994 88.7273 33.6449C88.3949 34.1818 87.9602 34.6122 87.4233 34.9361C86.8864 35.2514 86.3026 35.4091 85.6719 35.4091ZM92.9844 35V8.81818H100.092V29.2727H110.678V35H92.9844Z" fill="black"/>
<path d="M1.72727 43.2297C1.23788 43.2297 0.827939 42.9991 0.497455 42.538C0.165818 42.0785 0 41.5085 0 40.828C0 40.1476 0.165818 39.5776 0.497455 39.118C0.827939 38.6569 1.23788 38.4264 1.72727 38.4264H36.2727C36.7621 38.4264 37.1721 38.6569 37.5025 39.118C37.8342 39.5776 38 40.1476 38 40.828C38 41.5085 37.8342 42.0785 37.5025 42.538C37.1721 42.9991 36.7621 43.2297 36.2727 43.2297H1.72727ZM5.18182 36.0247C4.23182 36.0247 3.41885 35.5548 2.74291 34.615C2.06582 33.6735 1.72727 32.5423 1.72727 31.2214V4.8033C1.72727 3.48239 2.06582 2.35121 2.74291 1.40977C3.41885 0.469922 4.23182 0 5.18182 0H32.8182C33.7682 0 34.5817 0.469922 35.2588 1.40977C35.9348 2.35121 36.2727 3.48239 36.2727 4.8033V31.2214C36.2727 32.5423 35.9348 33.6735 35.2588 34.615C34.5817 35.5548 33.7682 36.0247 32.8182 36.0247H5.18182ZM5.18182 31.2214H32.8182V4.8033H5.18182V31.2214Z" fill="black"/>
</svg>
